<svg width="118" height="100" viewBox="0 0 118 100" fill="none" xmlns="http://www.w3.org/2000/svg">
<rect x="0.5" y="0.5" width="117" height="99" rx="11.5" fill="black" stroke="#1C1C1E"/>
<path fill-rule="evenodd" clip-rule="evenodd" d="M83.5496 43.2515C84.3761 43.7694 85.0339 44.7339 85.0339 45.7539C85.0339 46.7738 84.4309 47.8029 83.6078 48.312C83.6076 48.3122 83.6074 48.3123 83.6071 48.3124L81.5323 49.6166L77.5353 47.101L79.5416 45.8458C79.5734 45.826 79.5925 45.7912 79.5925 45.7539C79.5925 45.7164 79.5734 45.6817 79.5416 45.6619L49.8156 27.0651C49.7822 27.0442 49.74 27.043 49.7055 27.0621C49.671 27.0812 49.6496 27.1176 49.6496 27.157V62.2546L45.4355 64.8983V24.3914C45.4355 23.3733 45.8422 22.2451 46.6866 21.7757C47.6956 21.2304 48.7031 21.4855 49.6935 22.0637C49.6941 22.064 83.5496 43.2515 83.5496 43.2515Z" fill="#02C0FC"/>
<path fill-rule="evenodd" clip-rule="evenodd" d="M83.6121 53.2539L83.6124 53.2541C84.4312 53.7627 85.0305 54.7014 85.0305 55.7185C85.0305 56.7377 84.3695 57.7885 83.56 58.3071L49.6845 79.4929C49.2804 79.7428 47.9081 80.3283 46.7709 79.703C45.9249 79.2375 45.4358 78.1758 45.4358 77.16V74.5322L49.6332 71.9045V74.4011C49.6332 74.4406 49.6546 74.4769 49.6892 74.496C49.7236 74.5151 49.7658 74.514 49.7992 74.493L79.5223 55.8909C79.554 55.8711 79.5733 55.8363 79.5733 55.7989C79.5732 55.7615 79.554 55.7268 79.5223 55.707L51.671 38.2798V33.2658L83.6121 53.2539Z" fill="#02C0FC"/>
<path fill-rule="evenodd" clip-rule="evenodd" d="M69.8058 51.9248L73.8249 54.4363L41.2209 74.7955C40.8195 75.0442 39.4367 75.7957 38.2665 75.2275C36.9551 74.5913 36.955 73.4473 36.955 72.4283V29.2067C36.955 28.1906 37.4674 27.1984 38.2779 26.677C39.0857 26.1573 40.3792 26.2019 41.2148 26.6781C41.2157 26.6786 43.4148 28.0902 43.4148 28.0902V33.127L41.3298 31.8097C41.2964 31.7885 41.2542 31.7873 41.2196 31.8064C41.185 31.8254 41.1634 31.8618 41.1634 31.9013V69.671C41.1634 69.7104 41.1849 69.7468 41.2194 69.7659C41.2539 69.785 41.296 69.7838 41.3296 69.7629L69.8058 51.9248Z" fill="#02C0FC"/>
</svg>
