<svg width="118" height="100" viewBox="0 0 118 100" fill="none" xmlns="http://www.w3.org/2000/svg">
<rect x="0.5" y="0.5" width="117" height="99" rx="11.5" fill="black" stroke="#1C1C1E"/>
<g clip-path="url(#clip0_24_7)">
<path d="M48.752 79C54.1329 79 58.5 74.6694 58.5 69.3334V59.6667H48.752C43.371 59.6667 39.0039 63.9974 39.0039 69.3334C39.0039 74.6694 43.371 79 48.752 79Z" fill="#0ACF83"/>
<path d="M39.0039 50C39.0039 44.664 43.371 40.3333 48.752 40.3333H58.5V59.6666H48.752C43.371 59.6666 39.0039 55.336 39.0039 50Z" fill="#A259FF"/>
<path d="M39.004 30.6667C39.004 25.3307 43.3712 21 48.7521 21H58.5001V40.3333H48.7521C43.3712 40.3333 39.004 36.0027 39.004 30.6667Z" fill="#F24E1E"/>
<path d="M58.5 21H68.248C73.629 21 77.9961 25.3307 77.9961 30.6667C77.9961 36.0027 73.629 40.3333 68.248 40.3333H58.5V21Z" fill="#FF7262"/>
<path d="M77.9961 50C77.9961 55.336 73.629 59.6666 68.248 59.6666C62.8671 59.6666 58.5 55.336 58.5 50C58.5 44.664 62.8671 40.3333 68.248 40.3333C73.629 40.3333 77.9961 44.664 77.9961 50Z" fill="#1ABCFE"/>
</g>
<defs>
<clipPath id="clip0_24_7">
<rect width="39" height="58" fill="white" transform="translate(39 21)"/>
</clipPath>
</defs>
</svg>
