<svg width="118" height="100" viewBox="0 0 118 100" fill="none" xmlns="http://www.w3.org/2000/svg">
<rect x="0.5" y="0.5" width="117" height="99" rx="11.5" fill="url(#paint0_linear_23_4)" stroke="#1C1C1E"/>
<g filter="url(#filter0_d_23_4)">
<path d="M47.755 35.0909H51.9822V60.0455C51.9822 62.2727 51.5732 64.1648 50.755 65.7216C49.9368 67.2784 48.7834 68.4602 47.2947 69.267C45.8061 70.0739 44.0504 70.4773 42.0277 70.4773C40.1186 70.4773 38.4197 70.1307 36.9311 69.4375C35.4425 68.733 34.272 67.733 33.4197 66.4375C32.5675 65.142 32.1413 63.6023 32.1413 61.8182H36.3004C36.3004 62.8068 36.5447 63.6705 37.0334 64.4091C37.5334 65.1364 38.2152 65.7045 39.0788 66.1136C39.9425 66.5227 40.9254 66.7273 42.0277 66.7273C43.2436 66.7273 44.2777 66.4716 45.13 65.9602C45.9822 65.4489 46.63 64.6989 47.0732 63.7102C47.5277 62.7102 47.755 61.4886 47.755 60.0455V35.0909ZM79.5447 43.8182C79.3402 42.0909 78.5107 40.75 77.0561 39.7955C75.6016 38.8409 73.8175 38.3636 71.7038 38.3636C70.1584 38.3636 68.8061 38.6136 67.647 39.1136C66.4993 39.6136 65.6016 40.3011 64.9538 41.1761C64.3175 42.0511 63.9993 43.0455 63.9993 44.1591C63.9993 45.0909 64.2209 45.892 64.6641 46.5625C65.1186 47.2216 65.6982 47.7727 66.4027 48.2159C67.1072 48.6477 67.8459 49.0057 68.6186 49.2898C69.3913 49.5625 70.1016 49.7841 70.7493 49.9545L74.2947 50.9091C75.2038 51.1477 76.2152 51.4773 77.3288 51.8977C78.4538 52.3182 79.5277 52.892 80.5504 53.6193C81.5845 54.3352 82.4368 55.2557 83.1072 56.3807C83.7777 57.5057 84.1129 58.8864 84.1129 60.5227C84.1129 62.4091 83.6186 64.1136 82.63 65.6364C81.6527 67.1591 80.2209 68.3693 78.3345 69.267C76.4595 70.1648 74.1811 70.6136 71.4993 70.6136C68.9993 70.6136 66.8345 70.2102 65.005 69.4034C63.1868 68.5966 61.755 67.4716 60.7095 66.0284C59.6754 64.5852 59.0902 62.9091 58.9538 61H63.3175C63.4311 62.3182 63.8743 63.4091 64.647 64.2727C65.4311 65.125 66.4197 65.7614 67.6129 66.1818C68.8175 66.5909 70.1129 66.7955 71.4993 66.7955C73.1129 66.7955 74.5618 66.5341 75.8459 66.0114C77.13 65.4773 78.147 64.7386 78.897 63.7955C79.647 62.8409 80.022 61.7273 80.022 60.4545C80.022 59.2955 79.6982 58.3523 79.0504 57.625C78.4027 56.8977 77.5504 56.3068 76.4936 55.8523C75.4368 55.3977 74.2947 55 73.0675 54.6591L68.772 53.4318C66.0447 52.6477 63.8857 51.5284 62.2947 50.0739C60.7038 48.6193 59.9084 46.7159 59.9084 44.3636C59.9084 42.4091 60.4368 40.7045 61.4936 39.25C62.5618 37.7841 63.9936 36.6477 65.7891 35.8409C67.5959 35.0227 69.6129 34.6136 71.8402 34.6136C74.0902 34.6136 76.0902 35.017 77.8402 35.8239C79.5902 36.6193 80.9766 37.7102 81.9993 39.0966C83.0334 40.483 83.5788 42.0568 83.6357 43.8182H79.5447Z" fill="#FFB20D"/>
</g>
<defs>
<filter id="filter0_d_23_4" x="20.1414" y="26.6136" width="75.9717" height="60" filterUnits="userSpaceOnUse" color-interpolation-filters="sRGB">
<feFlood flood-opacity="0" result="BackgroundImageFix"/>
<feColorMatrix in="SourceAlpha" type="matrix" values="0 0 0 0 0 0 0 0 0 0 0 0 0 0 0 0 0 0 127 0" result="hardAlpha"/>
<feOffset dy="4"/>
<feGaussianBlur stdDeviation="6"/>
<feComposite in2="hardAlpha" operator="out"/>
<feColorMatrix type="matrix" values="0 0 0 0 0.811765 0 0 0 0 0.568627 0 0 0 0 0.0431373 0 0 0 1 0"/>
<feBlend mode="normal" in2="BackgroundImageFix" result="effect1_dropShadow_23_4"/>
<feBlend mode="normal" in="SourceGraphic" in2="effect1_dropShadow_23_4" result="shape"/>
</filter>
<linearGradient id="paint0_linear_23_4" x1="76" y1="19" x2="7" y2="100" gradientUnits="userSpaceOnUse">
<stop/>
<stop offset="0.52" stop-color="#271B00"/>
<stop offset="1" stop-color="#684802"/>
</linearGradient>
</defs>
</svg>
