<svg width="118" height="100" viewBox="0 0 118 100" fill="none" xmlns="http://www.w3.org/2000/svg">
<rect x="0.5" y="0.5" width="117" height="99" rx="11.5" fill="black" stroke="#1C1C1E"/>
<path d="M39.0962 51.2727C39.0962 53.1932 38.7269 54.821 37.9883 56.1562C37.2496 57.4915 36.2496 58.5057 34.9883 59.1989C33.7326 59.892 32.3235 60.2386 30.761 60.2386C29.1928 60.2386 27.7809 59.8892 26.5252 59.1903C25.2695 58.4915 24.2724 57.4773 23.5337 56.1477C22.8008 54.8125 22.4343 53.1875 22.4343 51.2727C22.4343 49.3523 22.8008 47.7244 23.5337 46.3892C24.2724 45.054 25.2695 44.0398 26.5252 43.3466C27.7809 42.6534 29.1928 42.3068 30.761 42.3068C32.3235 42.3068 33.7326 42.6534 34.9883 43.3466C36.2496 44.0398 37.2496 45.054 37.9883 46.3892C38.7269 47.7244 39.0962 49.3523 39.0962 51.2727ZM34.7837 51.2727C34.7837 50.1364 34.6218 49.1761 34.2979 48.392C33.9798 47.608 33.5195 47.0142 32.9173 46.6108C32.3207 46.2074 31.6019 46.0057 30.761 46.0057C29.9258 46.0057 29.207 46.2074 28.6048 46.6108C28.0025 47.0142 27.5394 47.608 27.2156 48.392C26.8974 49.1761 26.7383 50.1364 26.7383 51.2727C26.7383 52.4091 26.8974 53.3693 27.2156 54.1534C27.5394 54.9375 28.0025 55.5312 28.6048 55.9347C29.207 56.3381 29.9258 56.5398 30.761 56.5398C31.6019 56.5398 32.3207 56.3381 32.9173 55.9347C33.5195 55.5312 33.9798 54.9375 34.2979 54.1534C34.6218 53.3693 34.7837 52.4091 34.7837 51.2727ZM50.994 47.7784C50.9371 47.1534 50.6843 46.6676 50.2354 46.321C49.7923 45.9688 49.1587 45.7926 48.3349 45.7926C47.7894 45.7926 47.3349 45.8636 46.9712 46.0057C46.6076 46.1477 46.3349 46.3438 46.1531 46.5938C45.9712 46.8381 45.8775 47.1193 45.8718 47.4375C45.8604 47.6989 45.9116 47.929 46.0252 48.1278C46.1445 48.3267 46.315 48.5028 46.5366 48.6562C46.7638 48.804 47.0366 48.9347 47.3548 49.0483C47.6729 49.1619 48.0309 49.2614 48.4286 49.3466L49.9286 49.6875C50.7923 49.875 51.5536 50.125 52.2127 50.4375C52.8775 50.75 53.4343 51.1222 53.8832 51.554C54.3377 51.9858 54.6815 52.483 54.9144 53.0455C55.1474 53.608 55.2667 54.2386 55.2724 54.9375C55.2667 56.0398 54.9883 56.9858 54.4371 57.7756C53.886 58.5653 53.0934 59.1705 52.0593 59.5909C51.0309 60.0114 49.7894 60.2216 48.3349 60.2216C46.8746 60.2216 45.6019 60.0028 44.5167 59.5653C43.4315 59.1278 42.5877 58.4631 41.9854 57.571C41.3832 56.679 41.0735 55.5511 41.0565 54.1875H45.0962C45.1303 54.75 45.2809 55.2188 45.5479 55.5938C45.815 55.9688 46.1815 56.2528 46.6474 56.446C47.119 56.6392 47.6644 56.7358 48.2837 56.7358C48.8519 56.7358 49.3349 56.6591 49.7326 56.5057C50.136 56.3523 50.4457 56.1392 50.6616 55.8665C50.8775 55.5937 50.9883 55.2812 50.994 54.929C50.9883 54.5994 50.886 54.3182 50.6871 54.0852C50.4883 53.8466 50.1815 53.642 49.7667 53.4716C49.3576 53.2955 48.8349 53.1335 48.1985 52.9858L46.3746 52.5597C44.8633 52.2131 43.6729 51.6534 42.8036 50.8807C41.9343 50.1023 41.5025 49.0511 41.5082 47.7273C41.5025 46.6477 41.7923 45.7017 42.3775 44.8892C42.9627 44.0767 43.7724 43.4432 44.8065 42.9886C45.8406 42.5341 47.0195 42.3068 48.3434 42.3068C49.6957 42.3068 50.869 42.5369 51.8633 42.9972C52.8633 43.4517 53.6388 44.0909 54.19 44.9148C54.7411 45.7386 55.0224 46.6932 55.0337 47.7784H50.994ZM61.6218 42.5455V60H57.4031V42.5455H61.6218ZM79.1254 42.5455V60H75.5458L68.5998 49.9261H68.489V60H64.2702V42.5455H67.9009L74.7702 52.6023H74.9151V42.5455H79.1254ZM81.207 45.9716V42.5455H95.9599V45.9716H90.6673V60H86.5082V45.9716H81.207Z" fill="white"/>
</svg>
