<svg width="118" height="100" viewBox="0 0 118 100" fill="none" xmlns="http://www.w3.org/2000/svg">
<rect x="0.5" y="0.5" width="117" height="99" rx="11.5" fill="black" stroke="#1C1C1E"/>
<g clip-path="url(#clip0_35_43)">
<path d="M38.1956 24L33 29.4188" stroke="#5C1FE0" stroke-opacity="0.588" stroke-width="2"/>
<path d="M78.3899 24C80.6636 25.615 82.5336 27.57 83.9999 29.865" stroke="#5C1FE0" stroke-opacity="0.588" stroke-width="2"/>
<path d="M83.9999 70.0912L78.8362 75" stroke="#5C1FE0" stroke-opacity="0.588" stroke-width="2"/>
<path d="M38.5463 75L33 69.2625" stroke="#5C1FE0" stroke-opacity="0.588" stroke-width="2"/>
<path d="M46.5789 66.2344C46.7064 67.3394 47.7582 67.8388 49.7345 67.7325C57.3845 67.2863 64.907 68.2319 72.302 70.5694C73.4495 70.9306 73.8426 70.5375 73.4814 69.39C73.0351 68.0088 71.9514 67.0631 70.2301 66.5531C62.4951 64.2794 54.6114 64.1731 46.5789 66.2344Z" stroke="#7F43FF" stroke-width="2"/>
<path d="M46.5787 66.2344C45.9199 65.5119 45.7074 64.9912 45.9412 64.6725C53.2724 54.6637 60.0618 44.4425 66.3093 34.0087C66.5821 33.5653 66.7622 33.0712 66.8389 32.5563C66.9156 32.0413 66.8873 31.5162 66.7556 31.0125C65.8843 27.5487 63.2493 27.2831 58.8506 30.2156C58.2624 30.5938 57.7615 31.1057 57.3843 31.7137C50.8393 41.9775 45.6224 52.5387 41.7337 63.3975C41.6355 63.6699 41.6004 63.9611 41.6312 64.249C41.6619 64.5369 41.7576 64.8141 41.9111 65.0597C42.0645 65.3052 42.2718 65.5127 42.5171 65.6665C42.7625 65.8203 43.0395 65.9164 43.3274 65.9475L46.5787 66.2344Z" stroke="#B28EFF" stroke-width="2"/>
<path d="M33 24H38.1956L33 29.4188V24Z" fill="#15082E" fill-opacity="0.176"/>
<path d="M35.5206 26.7899C37.2295 25.0077 39.5916 24 42.0608 24H74.562C77.0522 24 79.5574 24.7 81.3027 26.4763C81.4975 26.6745 81.6881 26.8764 81.8744 27.0819C83.4125 28.7778 84 31.0816 84 33.3711V66.4014C84 68.7574 83.0333 71.0102 81.3257 72.6335V72.6335C79.7275 74.1528 77.6066 75 75.4014 75H42.6319C40.0207 75 37.5215 73.9399 35.7067 72.0625V72.0625C33.9705 70.2665 33 67.8662 33 65.3681V33.0608C33 30.7236 33.9031 28.4769 35.5206 26.7899V26.7899ZM46.5788 66.2344C46.7063 67.3394 47.7581 67.8388 49.7344 67.7325C57.3844 67.2863 64.9069 68.2319 72.3019 70.5694C73.4494 70.9306 73.8425 70.5375 73.4812 69.39C73.035 68.0087 71.9513 67.0631 70.23 66.5531C62.495 64.2794 54.6113 64.1731 46.5788 66.2344C45.92 65.5119 45.7075 64.9913 45.9412 64.6725C53.2725 54.6638 60.0619 44.4425 66.3094 34.0088C66.5821 33.5653 66.7623 33.0712 66.839 32.5563C66.9157 32.0413 66.8873 31.5162 66.7556 31.0125C65.8844 27.5488 63.2494 27.2831 58.8506 30.2156C58.2625 30.5938 57.7616 31.1057 57.3844 31.7138C50.8394 41.9775 45.6225 52.5387 41.7338 63.3975C41.6356 63.6699 41.6005 63.9611 41.6312 64.249C41.6619 64.5369 41.7577 64.8141 41.9111 65.0597C42.0646 65.3052 42.2718 65.5127 42.5172 65.6665C42.7625 65.8203 43.0396 65.9164 43.3275 65.9475L46.5788 66.2344Z" fill="#6823FF"/>
<path d="M78.3899 24H83.9999V29.865C82.5336 27.57 80.6636 25.615 78.3899 24Z" fill="#15082E" fill-opacity="0.176"/>
<path d="M46.5787 66.2344L43.3274 65.9475C43.0395 65.9164 42.7625 65.8203 42.5171 65.6665C42.2718 65.5127 42.0645 65.3052 41.9111 65.0597C41.7576 64.8141 41.6619 64.5369 41.6312 64.249C41.6004 63.9611 41.6355 63.6699 41.7337 63.3975C45.6224 52.5387 50.8393 41.9775 57.3843 31.7137C57.7615 31.1057 58.2624 30.5938 58.8506 30.2156C63.2493 27.2831 65.8843 27.5487 66.7556 31.0125C66.8873 31.5162 66.9156 32.0413 66.8389 32.5563C66.7622 33.0712 66.5821 33.5653 66.3093 34.0087C60.0618 44.4425 53.2724 54.6637 45.9412 64.6725C45.7074 64.9912 45.9199 65.5119 46.5787 66.2344Z" fill="#FCF8FF"/>
<path d="M46.5789 66.2344C54.6114 64.1731 62.4951 64.2794 70.2301 66.5531C71.9514 67.0631 73.0351 68.0088 73.4814 69.39C73.8426 70.5375 73.4495 70.9306 72.302 70.5694C64.907 68.2319 57.3845 67.2863 49.7345 67.7325C47.7582 67.8388 46.7064 67.3394 46.5789 66.2344Z" fill="#9562FF"/>
<path d="M33 69.2625L38.5463 75H33V69.2625Z" fill="#15082E" fill-opacity="0.176"/>
<path d="M83.9999 70.0912V75H78.8362L83.9999 70.0912Z" fill="#15082E" fill-opacity="0.176"/>
</g>
<defs>
<clipPath id="clip0_35_43">
<rect width="51" height="51" fill="white" transform="translate(33 24)"/>
</clipPath>
</defs>
</svg>
